<svg xmlns="http://www.w3.org/2000/svg" xmlns:xlink="http://www.w3.org/1999/xlink" width="1920" zoomAndPan="magnify" viewBox="0 0 1440 809.999993" height="1080" preserveAspectRatio="xMidYMid meet" version="1.0"><defs><clipPath id="f0e6c34c8b"><path d="M 0 105 L 1440 105 L 1440 810 L 0 810 Z M 0 105 " clip-rule="nonzero"/></clipPath><clipPath id="3a09af7b08"><path d="M 1707.601562 528.929688 L 511.519531 1338.847656 L -176.027344 323.480469 L 1020.054688 -486.4375 Z M 1707.601562 528.929688 " clip-rule="nonzero"/></clipPath><clipPath id="2c31f16e18"><path d="M 1707.601562 528.929688 L 511.519531 1338.847656 L -176.027344 323.480469 L 1020.054688 -486.4375 Z M 1707.601562 528.929688 " clip-rule="nonzero"/></clipPath><clipPath id="b8b0b22717"><path d="M 511.601562 1338.792969 L 1707.519531 528.984375 L 1479.054688 191.589844 C 1293.273438 41.851562 1070.464844 114.808594 922.328125 206.1875 C 830.515625 262.8125 715.21875 261.988281 622.0625 207.667969 C 377.664062 65.183594 37.5 178.789062 -125.71875 397.605469 Z M 511.601562 1338.792969 " clip-rule="nonzero"/></clipPath></defs><g clip-path="url(#f0e6c34c8b)"><g clip-path="url(#3a09af7b08)"><g clip-path="url(#2c31f16e18)"><g clip-path="url(#b8b0b22717)"><path fill="#8db5ad" d="M -356.625 283.335938 L 452.699219 1478.542969 L 1796.625 568.515625 L 987.300781 -626.691406 Z M -356.625 283.335938 " fill-opacity="1" fill-rule="nonzero"/></g></g></g></g><path fill="#cf926a" d="M -1.84375 447.925781 L 48.332031 457.625 C 98.503906 467.492188 198.855469 486.890625 299.207031 474.179688 C 399.554688 461.304688 499.90625 416.152344 600.253906 387.722656 C 700.605469 359.292969 800.957031 347.585938 901.304688 355.949219 C 1001.65625 364.308594 1102.003906 392.738281 1202.355469 431.203125 C 1302.707031 469.667969 1403.054688 518.164062 1453.230469 542.414062 L 1503.40625 566.660156 L 1503.40625 864.335938 L 1453.230469 864.335938 C 1403.054688 864.335938 1302.707031 864.335938 1202.355469 864.335938 C 1102.003906 864.335938 1001.65625 864.335938 901.304688 864.335938 C 800.957031 864.335938 700.605469 864.335938 600.253906 864.335938 C 499.90625 864.335938 399.554688 864.335938 299.207031 864.335938 C 198.855469 864.335938 98.503906 864.335938 48.332031 864.335938 L -1.84375 864.335938 Z M -1.84375 447.925781 " fill-opacity="1" fill-rule="nonzero"/></svg>