<?xml version="1.0" encoding="UTF-8"?>
<svg id="Capa_1" data-name="Capa 1" xmlns="http://www.w3.org/2000/svg" viewBox="0 0 1920 612">
  <defs>
    <style>
      .cls-1 {
        fill: #eb6335;
      }

      .cls-2 {
        fill: #006d80;
      }

      .cls-3 {
        fill: #8db5ac;
      }

      .cls-4 {
        fill: #ebae7e;
      }

      .cls-5 {
        fill: #e5331e;
      }

      .cls-6 {
        fill: #034b73;
      }
    </style>
  </defs>
  <g>
    <path class="cls-5" d="m261.67,523.92c6.48-19.46,10.34-40.75,11.56-63.87,1.62-28.79,3.04-92.05,4.26-189.78.4-21.49,0-42.17-1.22-62.04-1.22-19.86-3.25-37.81-6.08-53.83-2.84-16.01-6.29-27.47-10.34-34.37,21.9-2.02,46.53-6.39,73.9-13.08,27.37-6.69,48.56-13.69,63.56-20.99-4.47,11.77-8.01,34.58-10.65,68.43-2.64,33.86-3.75,70.06-3.34,108.57.4,94.08,1.42,159.17,3.04,195.25.4,14.6,6.69,26.67,18.86,36.19,12.17,9.53,26.55,13.79,43.18,12.77,16.62-1.01,30.81-7.39,42.58-19.16,16.62-17.43,29.81-40.35,39.54-68.73,9.73-28.38,15.41-58.18,17.03-89.42,1.61-31.22-1.02-62.75-7.91-94.58-6.9-31.83-17.24-60.31-31.02-85.46-13.79-25.14-32.45-45.41-55.96-60.83-23.52-15.41-50.09-22.7-79.68-21.9-24.33.82-48.05,6.6-71.17,17.34-23.11,10.75-43.49,24.94-61.13,42.58-17.64,17.64-31.32,39.84-41.06,66.6-9.73,26.76-13.38,55.15-10.95,85.16,2.43,25.15,9.43,47.85,20.99,68.12,11.56,20.28,27.27,35.49,47.14,45.62-29.2,8.93-55.46,12.17-78.77,9.73-23.32-2.43-43.18-9.02-59.61-19.77-16.42-10.74-29.1-24.64-38.02-41.67-8.92-17.03-13.79-35.89-14.6-56.57-.41-28.79,5.47-56.16,17.64-82.11,12.17-25.95,28.99-48.76,50.49-68.43,21.49-19.66,46.43-37,74.82-52.01,28.38-15,58.59-26.66,90.63-34.97,32.03-8.31,64.27-13.28,96.71-14.9,40.95-1.62,78.47,3.14,112.53,14.29,34.06,11.16,62.14,26.87,84.24,47.14,22.1,20.28,40.45,43.79,55.05,70.56,14.6,26.76,24.12,54.74,28.59,83.94,4.46,29.2,4.66,58.5.61,87.89-4.06,29.41-12.27,56.57-24.63,81.51-12.37,24.94-29.5,46.94-51.4,66-21.9,19.07-47.04,32.45-75.42,40.15-32.85,8.93-79.07,8.32-138.68-1.82-47.05-8.11-88.81-7.3-125.3,2.43Z"/>
    <path class="cls-1" d="m251.91,533.68c6.48-19.46,10.34-40.75,11.56-63.87,1.62-28.79,3.04-92.05,4.26-189.78.4-21.49,0-42.17-1.22-62.04-1.22-19.86-3.25-37.81-6.08-53.83-2.84-16.01-6.29-27.47-10.34-34.37,21.9-2.02,46.53-6.39,73.9-13.08s48.56-13.69,63.56-20.99c-4.47,11.77-8.01,34.58-10.65,68.43-2.64,33.86-3.75,70.06-3.34,108.57.4,94.08,1.42,159.17,3.04,195.25.4,14.6,6.69,26.67,18.86,36.19,12.17,9.53,26.55,13.79,43.18,12.77,16.62-1.01,30.81-7.39,42.58-19.16,16.62-17.43,29.81-40.35,39.54-68.73,9.73-28.38,15.41-58.18,17.03-89.42,1.61-31.22-1.02-62.75-7.91-94.58-6.9-31.83-17.24-60.31-31.02-85.46-13.79-25.14-32.45-45.41-55.96-60.83-23.52-15.41-50.09-22.7-79.68-21.9-24.33.82-48.05,6.6-71.17,17.34-23.11,10.75-43.49,24.94-61.13,42.58-17.64,17.64-31.32,39.84-41.06,66.6-9.73,26.76-13.38,55.15-10.95,85.16,2.43,25.15,9.43,47.85,20.99,68.12,11.56,20.28,27.27,35.49,47.14,45.62-29.2,8.93-55.46,12.17-78.77,9.73-23.32-2.43-43.18-9.02-59.61-19.77-16.42-10.74-29.1-24.64-38.02-41.67-8.92-17.03-13.79-35.89-14.6-56.57-.41-28.79,5.47-56.16,17.64-82.11,12.17-25.95,28.99-48.76,50.49-68.43,21.49-19.66,46.43-37,74.82-52.01,28.38-15,58.59-26.66,90.63-34.97,32.03-8.31,64.27-13.28,96.71-14.9,40.95-1.62,78.47,3.14,112.53,14.29,34.06,11.16,62.14,26.87,84.24,47.14,22.1,20.28,40.45,43.79,55.05,70.56,14.6,26.76,24.12,54.74,28.59,83.94,4.46,29.2,4.66,58.5.61,87.89-4.06,29.41-12.27,56.57-24.63,81.51-12.37,24.94-29.5,46.94-51.4,66-21.9,19.07-47.04,32.45-75.42,40.15-32.85,8.93-79.07,8.32-138.68-1.82-47.05-8.11-88.81-7.3-125.3,2.43Z"/>
    <path class="cls-4" d="m242.15,543.44c6.48-19.46,10.34-40.75,11.56-63.87,1.62-28.79,3.04-92.05,4.26-189.78.4-21.49,0-42.17-1.22-62.04-1.22-19.86-3.25-37.81-6.08-53.83-2.84-16.01-6.29-27.47-10.34-34.37,21.9-2.02,46.53-6.39,73.9-13.08,27.37-6.69,48.56-13.69,63.56-20.99-4.47,11.77-8.01,34.58-10.65,68.43-2.64,33.86-3.75,70.06-3.34,108.57.4,94.08,1.42,159.17,3.04,195.25.4,14.6,6.69,26.67,18.86,36.19,12.17,9.53,26.55,13.79,43.18,12.77,16.62-1.01,30.81-7.39,42.58-19.16,16.62-17.43,29.81-40.35,39.54-68.73,9.73-28.38,15.41-58.18,17.03-89.42,1.61-31.22-1.02-62.75-7.91-94.58-6.9-31.83-17.24-60.31-31.02-85.46-13.79-25.14-32.45-45.41-55.96-60.83-23.52-15.41-50.09-22.7-79.68-21.9-24.33.82-48.05,6.6-71.17,17.34-23.11,10.75-43.49,24.94-61.13,42.58-17.64,17.64-31.32,39.84-41.06,66.6-9.73,26.76-13.38,55.15-10.95,85.16,2.43,25.15,9.43,47.85,20.99,68.12,11.56,20.28,27.27,35.49,47.14,45.62-29.2,8.93-55.46,12.17-78.77,9.73-23.32-2.43-43.18-9.02-59.61-19.77-16.42-10.74-29.1-24.64-38.02-41.67-8.92-17.03-13.79-35.89-14.6-56.57-.41-28.79,5.47-56.16,17.64-82.11,12.17-25.95,28.99-48.76,50.49-68.43,21.49-19.66,46.43-37,74.82-52.01,28.38-15,58.59-26.66,90.63-34.97,32.03-8.31,64.27-13.28,96.71-14.9,40.95-1.62,78.47,3.14,112.53,14.29,34.06,11.16,62.14,26.87,84.24,47.14,22.1,20.28,40.45,43.79,55.05,70.56,14.6,26.76,24.12,54.74,28.59,83.94,4.46,29.2,4.66,58.5.61,87.89-4.06,29.41-12.27,56.57-24.63,81.51-12.37,24.94-29.5,46.94-51.4,66-21.9,19.07-47.04,32.45-75.42,40.15-32.85,8.93-79.07,8.32-138.68-1.82-47.05-8.11-88.81-7.3-125.3,2.43Z"/>
    <path class="cls-3" d="m232.4,553.2c6.48-19.46,10.34-40.75,11.56-63.87,1.62-28.79,3.04-92.05,4.26-189.78.4-21.49,0-42.17-1.22-62.04-1.22-19.86-3.25-37.81-6.08-53.83-2.84-16.01-6.29-27.47-10.34-34.37,21.9-2.02,46.53-6.39,73.9-13.08,27.37-6.69,48.56-13.69,63.56-20.99-4.47,11.77-8.01,34.58-10.65,68.43-2.64,33.86-3.75,70.06-3.34,108.57.4,94.08,1.42,159.17,3.04,195.25.4,14.6,6.69,26.67,18.86,36.19,12.17,9.53,26.55,13.79,43.18,12.77,16.62-1.01,30.81-7.39,42.58-19.16,16.62-17.43,29.81-40.35,39.54-68.73,9.73-28.38,15.41-58.18,17.03-89.42,1.61-31.22-1.02-62.75-7.91-94.58-6.9-31.83-17.24-60.31-31.02-85.46-13.79-25.14-32.45-45.41-55.96-60.83-23.52-15.41-50.09-22.7-79.68-21.9-24.33.82-48.05,6.6-71.17,17.34-23.11,10.75-43.49,24.94-61.13,42.58-17.64,17.64-31.32,39.84-41.06,66.6-9.73,26.76-13.38,55.15-10.95,85.16,2.43,25.15,9.43,47.85,20.99,68.12,11.56,20.28,27.27,35.49,47.14,45.62-29.2,8.93-55.46,12.17-78.77,9.73-23.32-2.43-43.18-9.02-59.61-19.77-16.42-10.74-29.1-24.64-38.02-41.67-8.92-17.03-13.79-35.89-14.6-56.57-.41-28.79,5.47-56.16,17.64-82.11,12.17-25.95,28.99-48.76,50.49-68.43,21.49-19.66,46.43-37,74.82-52.01,28.38-15,58.59-26.66,90.63-34.97,32.03-8.31,64.27-13.28,96.71-14.9,40.95-1.62,78.47,3.14,112.53,14.29,34.06,11.16,62.14,26.87,84.24,47.14,22.1,20.28,40.45,43.79,55.05,70.56,14.6,26.76,24.12,54.74,28.59,83.94,4.46,29.2,4.66,58.5.61,87.89-4.06,29.41-12.27,56.57-24.63,81.51-12.37,24.94-29.5,46.94-51.4,66-21.9,19.07-47.04,32.45-75.42,40.15-32.85,8.93-79.07,8.32-138.68-1.82-47.05-8.11-88.81-7.3-125.3,2.43Z"/>
    <path class="cls-2" d="m222.64,562.95c6.48-19.46,10.34-40.75,11.56-63.87,1.62-28.79,3.04-92.05,4.26-189.78.4-21.49,0-42.17-1.22-62.04-1.22-19.86-3.25-37.81-6.08-53.83-2.84-16.01-6.29-27.47-10.34-34.37,21.9-2.02,46.53-6.39,73.9-13.08,27.37-6.69,48.56-13.69,63.56-20.99-4.47,11.77-8.01,34.58-10.65,68.43-2.64,33.86-3.75,70.06-3.34,108.57.4,94.08,1.42,159.17,3.04,195.25.4,14.6,6.69,26.67,18.86,36.19,12.17,9.53,26.55,13.79,43.18,12.77,16.62-1.01,30.81-7.39,42.58-19.16,16.62-17.43,29.81-40.35,39.54-68.73,9.73-28.38,15.41-58.18,17.03-89.42,1.61-31.22-1.02-62.75-7.91-94.58-6.9-31.83-17.24-60.31-31.02-85.46-13.79-25.14-32.45-45.41-55.96-60.83-23.52-15.41-50.09-22.7-79.68-21.9-24.33.82-48.05,6.6-71.17,17.34-23.11,10.75-43.49,24.94-61.13,42.58-17.64,17.64-31.32,39.84-41.06,66.6-9.73,26.76-13.38,55.15-10.95,85.16,2.43,25.15,9.43,47.85,20.99,68.12,11.56,20.28,27.27,35.49,47.14,45.62-29.2,8.93-55.46,12.17-78.77,9.73-23.32-2.43-43.18-9.02-59.61-19.77-16.42-10.74-29.1-24.64-38.02-41.67-8.92-17.03-13.79-35.89-14.6-56.57-.41-28.79,5.47-56.16,17.64-82.11,12.17-25.95,28.99-48.76,50.49-68.43,21.49-19.66,46.43-37,74.82-52.01,28.38-15,58.59-26.66,90.63-34.97,32.03-8.31,64.27-13.28,96.71-14.9,40.95-1.62,78.47,3.14,112.53,14.29,34.06,11.16,62.14,26.87,84.24,47.14,22.1,20.28,40.45,43.79,55.05,70.56,14.6,26.76,24.12,54.74,28.59,83.94,4.46,29.2,4.66,58.5.61,87.89-4.06,29.41-12.27,56.57-24.63,81.51-12.37,24.94-29.5,46.94-51.4,66-21.9,19.07-47.04,32.45-75.42,40.15-32.85,8.93-79.07,8.32-138.68-1.82-47.05-8.11-88.81-7.3-125.3,2.43Z"/>
    <path class="cls-6" d="m212.88,572.71c6.48-19.46,10.34-40.75,11.56-63.87,1.62-28.79,3.04-92.05,4.26-189.78.4-21.49,0-42.17-1.22-62.04-1.22-19.86-3.25-37.81-6.08-53.83-2.84-16.01-6.29-27.47-10.34-34.37,21.9-2.02,46.53-6.39,73.9-13.08,27.37-6.69,48.56-13.69,63.56-20.99-4.47,11.77-8.01,34.58-10.65,68.43-2.64,33.86-3.75,70.06-3.34,108.57.4,94.08,1.42,159.17,3.04,195.25.4,14.6,6.69,26.67,18.86,36.19,12.17,9.53,26.55,13.79,43.18,12.77,16.62-1.01,30.81-7.39,42.58-19.16,16.62-17.43,29.81-40.35,39.54-68.73,9.73-28.38,15.41-58.18,17.03-89.42,1.61-31.22-1.02-62.75-7.91-94.58-6.9-31.83-17.24-60.31-31.02-85.46-13.79-25.14-32.45-45.41-55.96-60.83-23.52-15.41-50.09-22.7-79.68-21.9-24.33.82-48.05,6.6-71.17,17.34-23.11,10.75-43.49,24.94-61.13,42.58-17.64,17.64-31.32,39.84-41.06,66.6-9.73,26.76-13.38,55.15-10.95,85.16,2.43,25.15,9.43,47.85,20.99,68.12,11.56,20.28,27.27,35.49,47.14,45.62-29.2,8.93-55.46,12.17-78.77,9.73-23.32-2.43-43.18-9.02-59.61-19.77-16.42-10.74-29.1-24.64-38.02-41.67-8.92-17.03-13.79-35.89-14.6-56.57-.41-28.79,5.47-56.16,17.64-82.11,12.17-25.95,28.99-48.76,50.49-68.43,21.49-19.66,46.43-37,74.82-52.01,28.38-15,58.59-26.66,90.63-34.97,32.03-8.31,64.27-13.28,96.71-14.9,40.95-1.62,78.47,3.14,112.53,14.29,34.06,11.16,62.14,26.87,84.24,47.14,22.1,20.28,40.45,43.79,55.05,70.56,14.6,26.76,24.12,54.74,28.59,83.94,4.46,29.2,4.66,58.5.61,87.89-4.06,29.41-12.27,56.57-24.63,81.51-12.37,24.94-29.5,46.94-51.4,66-21.9,19.07-47.04,32.45-75.42,40.15-32.85,8.93-79.07,8.32-138.68-1.82-47.05-8.11-88.81-7.3-125.3,2.43Z"/>
  </g>
  <g>
    <path class="cls-1" d="m977.69,471.18c-1.19,9.92-3.67,19.34-7.44,28.27-3.77,8.93-8.43,17.17-13.99,24.7-5.56,7.54-12.01,14.49-19.34,20.83-7.35,6.35-15.47,11.9-24.4,16.66-8.93,4.76-18.36,8.54-28.27,11.31-39.68,10.71-76.77,5.56-111.29-15.47-19.84-11.9-35.62-27.47-47.31-46.72-11.71-19.24-18.85-39.18-21.43-59.81-2.59-20.63-1.29-41.56,3.87-62.79,5.15-21.22,13.58-40.27,25.29-57.14,11.7-16.86,27.27-30.55,46.72-41.07,19.44-10.51,40.67-15.77,63.68-15.77,35.71,0,66.45,12.7,92.25,38.09,25.79,25.4,40.26,56.94,43.45,94.63h-196.4c9.91,19.44,23.9,35.81,41.96,49.1,18.05,13.3,40.17,22.12,66.36,26.48,26.19,4.37,54.95.59,86.3-11.31Zm-201.76-158.91c-7.54,1.59-11.71,9.23-12.5,22.91-.8,13.69,2.77,30.86,10.71,51.48h80.35c-7.54-21.82-19.64-40.27-36.3-55.35-16.67-15.07-30.75-21.43-42.26-19.04Z"/>
    <path class="cls-1" d="m1124.09,189.07c-7.54,23.42-11.9,77.18-13.09,161.29,15.47-42.45,36.5-67.05,63.09-73.8,21.42-5.55,41.46-1.79,60.11,11.31,18.65,13.09,31.25,32.54,37.79,58.33,6.55,25.8,7.64,51.58,3.27,77.37-4.37,25.79-12.11,48.41-23.21,67.85-14.28,24.6-32.34,44.34-54.16,59.22-21.82,14.88-46.42,21.72-73.8,20.53h-134.5c11.5-27.77,17.26-85.5,17.26-173.19s-5.76-143.63-17.26-167.83c21.43-2.77,45.53-8.23,72.31-16.37,26.78-8.13,47.51-16.37,62.19-24.7Zm23.21,150.57c-8.73.4-16.47,6.75-23.21,19.04-6.75,12.3-11.31,28.18-13.69,47.61.39,64.68,3.37,112.48,8.93,143.43,19.05-19.84,34.12-46.81,45.23-80.94,11.1-34.12,15.18-64.28,12.2-90.46-2.98-26.19-12.8-39.08-29.46-38.69Z"/>
    <path class="cls-1" d="m1579.38,278.35c-8.73,22.22-13.6,68.84-14.58,139.86-.99,71.03,3.87,122.01,14.58,152.96h-129.74c11.1-25.79,16.86-66.66,17.26-122.6l-.6,1.78c-7.54,30.16-16.07,55.05-25.59,74.69-9.52,19.64-21.82,33.83-36.9,42.55-9.13,5.56-19.64,8.84-31.54,9.82-11.9,1-23.91-1.58-36.01-7.74-12.11-6.15-21.13-15.97-27.08-29.46-6.75-14.67-10.71-35.9-11.9-63.68-1.19-27.77-2.59-57.33-4.17-88.68-1.59-31.34-6.16-57.33-13.69-77.97,45.62-5.55,84.71-16.07,117.24-31.54v129.74c0,67.85,6.94,101.58,20.83,101.18,9.12-.79,16.96-8.43,23.51-22.91,6.55-14.48,12.8-34.42,18.75-59.81,1.98-7.93,3.77-16.07,5.36-24.4-2.78-46.81-7.94-77.57-15.47-92.25,20.62-1.98,43.84-6.15,69.63-12.5,25.79-6.34,45.83-12.69,60.11-19.04Z"/>
    <path class="cls-1" d="m1713.29,449.75c1.98,63.09,6.34,103.56,13.09,121.41h-133.91c11.51-27.77,17.26-85.5,17.26-173.19s-5.76-143.63-17.26-167.83c21.03-2.77,44.83-8.23,71.42-16.37,26.58-8.13,47.41-16.37,62.49-24.7-5.16,15.87-9.03,48.41-11.61,97.61-2.59,49.2-3.27,99-2.08,149.38,15.86-10.31,30.06-20.92,42.55-31.84,12.5-10.91,22.62-21.13,30.35-30.65,7.74-9.52,14.08-18.84,19.05-27.97,4.96-9.12,8.33-17.35,10.12-24.7,1.79-7.34,2.58-14.08,2.38-20.23-.2-6.15-1.29-11.31-3.27-15.47-1.99-4.17-4.57-7.44-7.74-9.82,5.15-6.74,11.4-11.7,18.75-14.88,7.34-3.17,14.48-4.46,21.43-3.87,6.94.6,13.39,2.78,19.34,6.55,5.95,3.78,10.12,8.83,12.5,15.18,12.69,33.73-12.9,74.99-76.77,123.79,1.98,3.97,10.71,21.72,26.19,53.27,15.47,31.54,29.25,57.04,41.36,76.48,12.1,19.45,23.3,32.54,33.63,39.28h-149.38c9.91-12.29,3.77-40.07-18.45-83.32-3.97-7.53-10.92-20.23-20.83-38.09h-.59Z"/>
  </g>
</svg>